<svg xmlns="http://www.w3.org/2000/svg" width="16" height="16" viewBox="0 0 16 16">
    <g fill="none" fill-rule="evenodd">
        <path d="M0 0L16 0 16 16 0 16z"/>
        <path fill-rule="nonzero" stroke="#333" d="M11.071 5.167c.214 0 .408.093.549.238.147.153.237.364.237.595h0v6.667c0 .231-.09.442-.237.594-.141.146-.335.239-.549.239h0H5.93c-.214 0-.408-.093-.549-.239-.147-.152-.237-.363-.237-.594h0V6c0-.231.09-.442.237-.595.141-.145.335-.238.549-.238h0zM9.853 2.5l.685.667h1.82L4.642 3.5l1.82-.333.468-.487 2.922-.18z"/>
    </g>
</svg>
