<svg xmlns="http://www.w3.org/2000/svg" width="159" height="27" viewBox="0 0 159 27">
    <g fill="none" fill-rule="evenodd">
        <path fill="#537CFD" fill-rule="nonzero" d="M24.161 5.602c1.152.551 2.086 1.445 2.662 2.546L32.37 18.76c1.47 2.813.279 6.233-2.662 7.639-.826.395-1.737.601-2.661.601H15.952C12.665 27 10 24.451 10 21.307c0-.884.215-1.756.628-2.547l5.548-10.612c1.47-2.812 5.045-3.952 7.985-2.546zM12.541.52c1.02.476 1.847 1.248 2.358 2.2l1.1 2.055c-.203.252-.39.52-.56.802l-.163.287-6.98 13.024-.06.112H5.271C2.36 19 0 16.799 0 14.083c0-.763.19-1.516.556-2.199L5.47 2.72C6.771.29 9.937-.694 12.541.52z"/>
        <text fill="#333" font-family="Rubik-Bold, Rubik" font-size="16" font-weight="bold">
            <tspan x="41" y="19">Company Logo</tspan>
        </text>
    </g>
</svg>
