<svg xmlns="http://www.w3.org/2000/svg" width="32" height="40" viewBox="0 0 32 40">
    <g fill="none" fill-rule="evenodd">
        <g fill="#C9D5EA" fill-rule="nonzero">
            <g>
                <g>
                    <g>
                        <g>
                            <g>
                                <path d="M21.302 24.211l-2.141 2.423-4.498-6.215c-.182-.258-.48-.414-.8-.419h-.012c-.316.003-.613.152-.8.402L6.196 29.44c-.224.296-.259.69-.09 1.02.17.33.513.538.89.54h19.008c.377 0 .721-.209.89-.538.17-.33.134-.723-.091-1.019l-3.947-5.177c-.18-.237-.461-.381-.763-.392-.302-.01-.593.113-.79.337zm-3.711 4.842H8.975l4.858-6.403 4.435 6.12.203.283h-.88zm6.428 0h-3.108l-.564-.78L22 26.403l2.02 2.65zM19 20c1.657 0 3-1.343 3-3s-1.343-3-3-3-3 1.343-3 3c.002 1.656 1.344 2.998 3 3zm0-4.088c.6 0 1.088.487 1.088 1.088 0 .6-.487 1.088-1.088 1.088-.6 0-1.088-.487-1.088-1.088.001-.6.488-1.087 1.088-1.088z" transform="translate(-424 -2789) translate(400 2684) translate(24 105)"/>
                                <path d="M31.437 10.852L21.05.604l-.308-.31C20.557.106 20.305.001 20.04 0H5.12C2.285.01-.006 2.293 0 5.103v29.794C-.006 37.707 2.285 39.99 5.12 40h21.76c2.835-.01 5.126-2.293 5.12-5.103V11.833c.003-.26-.098-.511-.281-.697l-.282-.284zm-10.27-7.384l7.4 7.37H21.7c-.309 0-.531-.291-.531-.598V3.468zm8.845 31.429c.008 1.722-1.394 3.125-3.131 3.133H5.119c-1.737-.008-3.14-1.411-3.131-3.133V5.103C1.98 3.381 3.382 1.978 5.119 1.97H19.18v8.27c0 1.393 1.114 2.568 2.52 2.568h8.312v22.089z" transform="translate(-424 -2789) translate(400 2684) translate(24 105)"/>
                            </g>
                        </g>
                    </g>
                </g>
            </g>
        </g>
    </g>
</svg>
