<svg xmlns="http://www.w3.org/2000/svg" width="16" height="16" viewBox="0 0 16 16">
    <g fill="none" fill-rule="evenodd">
        <g>
            <path d="M0 0L16 0 16 16 0 16z"/>
            <path fill="#333" fill-rule="nonzero" d="M8 1c3.866 0 7 3.134 7 7s-3.134 7-7 7-7-3.134-7-7 3.134-7 7-7zm0 1.5C4.962 2.5 2.5 4.962 2.5 8s2.462 5.5 5.5 5.5 5.5-2.462 5.5-5.5S11.038 2.5 8 2.5zm0 8c.414 0 .75.336.75.75S8.414 12 8 12s-.75-.336-.75-.75.336-.75.75-.75zM8 4c.414 0 .75.336.75.75v4c0 .414-.336.75-.75.75s-.75-.336-.75-.75v-4c0-.414.336-.75.75-.75z" transform="rotate(-180 8 8)"/>
        </g>
    </g>
</svg>
