<?xml version="1.0" encoding="UTF-8"?>
<svg xmlns="http://www.w3.org/2000/svg" width="49" height="63" viewBox="0 0 49 63">
    <path fill="#FFF" fill-rule="nonzero" d="M42.7 49.36c-1.717.212-4.328.55-4.96.726a2.092 2.092 0 0 0-1.543 1.553c-.18.634-.514 3.278-.718 5.014a21.443 21.443 0 0 0 7.22-7.292h.002zM24.5 59.73a20.972 20.972 0 0 0 10.268-2.67c-.199-1.696-.574-4.734-.77-5.421a2.084 2.084 0 0 0-1.535-1.553c-.964-.275-6.518-.912-6.518-.912v-.385s5.554-.643 6.517-.912a2.079 2.079 0 0 0 1.536-1.552c.272-.915.85-6.059.912-6.614-3.811.712-6.416 2.473-9.691 4.174-3.48 1.797-6.874 3.083-11.292 3.083a18.895 18.895 0 0 1-9.874-2.847c2.589 9.234 10.94 15.61 20.447 15.61zM3.618 13.535h2.276v-1.797h.816c2.12 0 3.46-1.1 3.46-3.023 0-2.11-1.434-2.865-3.773-2.865-.927.002-1.853.054-2.774.156l-.005 7.529zm7.45 0h2.27v-2.96h2.372v2.96h2.276V6.009h-2.273v2.99h-2.374v-2.99h-2.27v7.526zm8.606 0h2.275V6.009h-2.278l.003 7.526zm3.958 0h4.113l.34-1.511h-2.178V6.009h-2.275v7.526zm5.267 0h2.276V6.009h-2.276v7.526zm3.99 0h2.277v-1.797h.816c2.118 0 3.46-1.1 3.46-3.023 0-2.11-1.432-2.865-3.773-2.865-.926.002-1.852.054-2.774.156l-.005 7.529zM24.5 16.859a21.09 21.09 0 0 0-5.213.652c.09.752.346 2.846.468 3.297.102.426.432.759.855.86.528.148 3.52.489 3.52.489v.214s-2.995.355-3.52.503a1.16 1.16 0 0 0-.855.86c-.12.415-.356 2.338-.454 3.17 1.769.237 3.67.46 3.67.46v.384s-5.554.643-6.512.912a2.087 2.087 0 0 0-1.544 1.553c-.256.893-.817 5.75-.89 6.481 3.923-.728 7.268-2.775 9.78-3.997 3.572-1.74 6.84-3.168 11.3-3.168 3.46.015 6.85.988 9.8 2.813-2.629-9.17-10.947-15.481-20.405-15.483zm19.162-5.404c0 .472-.343.725-1.184.725a6.753 6.753 0 0 1-2.59-.599l.251 1.731a7.467 7.467 0 0 0 2.371.38c1.906 0 3.46-.63 3.46-2.52 0-2.517-3.585-2.044-3.585-3.242 0-.41.406-.6 1.059-.6.693.002 1.38.13 2.028.38l-.188-1.649a8.836 8.836 0 0 0-2.088-.22c-1.837 0-3.084.734-3.084 2.267 0 2.643 3.552 2.11 3.552 3.339l-.002.008zm-8.374 28.193c.05.437.65 5.745.912 6.671.183.77.78 1.371 1.544 1.553.68.19 3.685.571 5.365.774a21.47 21.47 0 0 0 2.485-7.778 20.169 20.169 0 0 0-7.238-1.445 19.854 19.854 0 0 0-3.068.225zM11.2 26.438a2.079 2.079 0 0 0 1.538-1.556c.177-.62.498-3.154.708-4.888a21.457 21.457 0 0 0-7.078 7.144c1.715-.214 4.217-.55 4.832-.711v.01zm-7.76 9.168c2.298.903 4.74 1.378 7.208 1.402a18.11 18.11 0 0 0 2.994-.25c-.084-.767-.637-5.666-.893-6.556a2.081 2.081 0 0 0-1.538-1.553c-.67-.186-3.56-.55-5.26-.76a21.477 21.477 0 0 0-2.5 7.717h-.012zm15.113-11.883a1.157 1.157 0 0 0-.858-.86c-.421-.116-2.373-.363-3.176-.462.15 1.119.3 2.124.402 2.473a2.084 2.084 0 0 0 1.544 1.555c.365.102 1.394.259 2.532.412-.104-.851-.332-2.717-.452-3.126l.008.008zm-.008-2.937c.12-.423.365-2.399.46-3.21a20.892 20.892 0 0 0-4.838 1.982c.085.717.2 1.648.313 2.541.78-.09 2.785-.335 3.215-.453.422-.102.75-.435.85-.86zM3.43 40.939c2.687 1.726 6.424 2.58 9.56 2.58 4.748 0 7.604-1.426 10.734-3.003 4.301-2.168 7.873-4.45 13.478-4.42 2.967.002 5.891.716 8.531 2.082a22.055 22.055 0 0 0-.174-2.665c-2.684-1.712-6.41-2.597-9.528-2.597-4.744 0-7.595 1.468-10.728 3.023-4.01 2.03-7.856 4.45-13.445 4.45a18.373 18.373 0 0 1-8.591-2.09c.002.883.056 1.764.163 2.64zM49 1.355V38.27C49 51.93 38.031 63 24.5 63S0 51.929 0 38.271V1.355A227.417 227.417 0 0 1 24.5 0C35.334 0 45.706.898 49 1.355zm-18.704 51.83c-.117-.417-.387-2.77-.387-2.77h-.169s-.272 2.353-.386 2.77a.9.9 0 0 1-.665.67c-.416.116-2.744.394-2.744.394v.154s2.33.274 2.744.393c.329.079.585.337.665.667.117.418.386 2.77.386 2.77h.17s.271-2.352.386-2.77a.903.903 0 0 1 .664-.667c.416-.116 2.744-.393 2.744-.393v-.168s-2.328-.275-2.744-.393a.903.903 0 0 1-.664-.67v.014zm6.998-44.437c0-.945-.53-1.48-1.652-1.48h-.373v3.115h.392c1.184 0 1.652-.662 1.652-1.648l-.019.013zM6.392 10.383h-.39V7.276h.376c1.122 0 1.653.535 1.653 1.48 0 .946-.469 1.65-1.653 1.65l.014-.023z"/>
</svg>
