<svg xmlns="http://www.w3.org/2000/svg" width="16" height="16" viewBox="0 0 16 16">
    <g fill="none" fill-rule="evenodd">
        <path d="M0 0H16V16H0z"/>
        <path fill="#333" fill-rule="nonzero" d="M.727 3.917L1.658 3l12.16 12.076-.923.924-2.24-2.224c-.837.274-1.724.418-2.655.418-3.636 0-6.742-2.246-8-5.416.502-1.271 1.302-2.39 2.32-3.28L.727 3.919zM8 6.611c1.205 0 2.182.97 2.182 2.167 0 .253-.044.498-.124.722L7.273 6.734c.225-.08.472-.123.727-.123zm0-3.25c3.636 0 6.742 2.246 8 5.417-.596 1.502-1.607 2.802-2.91 3.748l-1.032-1.033c.99-.679 1.804-1.603 2.357-2.715-1.2-2.427-3.68-3.972-6.415-3.972-.793 0-1.57.13-2.298.36l-1.12-1.104c1.047-.448 2.203-.7 3.418-.7zM1.585 8.778c1.2 2.426 3.68 3.972 6.415 3.972.502 0 .996-.05 1.455-.152l-1.659-1.654c-1.04-.108-1.869-.931-1.978-1.964L3.345 6.517c-.72.614-1.323 1.38-1.76 2.26z"/>
    </g>
</svg>
