<svg xmlns="http://www.w3.org/2000/svg" width="16" height="16" viewBox="0 0 16 16">
    <g fill="none" fill-rule="evenodd">
        <path d="M0 0H16V16H0z"/>
        <path fill="#333" fill-rule="nonzero" d="M8 6.3c1.205 0 2.182.985 2.182 2.2 0 1.215-.977 2.2-2.182 2.2s-2.182-.985-2.182-2.2c0-1.215.977-2.2 2.182-2.2zM8 3c3.636 0 6.742 2.28 8 5.5-1.258 3.22-4.364 5.5-8 5.5s-6.742-2.28-8-5.5C1.258 5.28 4.364 3 8 3zM1.585 8.5c1.2 2.464 3.68 4.033 6.415 4.033s5.215-1.569 6.415-4.033c-1.2-2.464-3.68-4.033-6.415-4.033S2.785 6.036 1.585 8.5z"/>
    </g>
</svg>
