<svg xmlns="http://www.w3.org/2000/svg" xmlns:xlink="http://www.w3.org/1999/xlink" width="44" height="44" viewBox="0 0 44 44">
    <defs>
        <linearGradient id="c28ogssf4b" x1="50%" x2="50%" y1="100%" y2="0%">
            <stop offset="0%" stop-color="#F8FAFF"/>
            <stop offset="100%" stop-color="#EEF2FF"/>
        </linearGradient>
        <rect id="sayfd6x6pa" width="44" height="44" x="0" y="0" rx="4"/>
    </defs>
    <g fill="none" fill-rule="evenodd">
        <mask id="qzdkx0vr3c" fill="#fff">
            <use xlink:href="#sayfd6x6pa"/>
        </mask>
        <use fill="url(#c28ogssf4b)" fill-rule="nonzero" xlink:href="#sayfd6x6pa"/>
        <path fill="#537CFD" fill-rule="nonzero" d="M19 23c1.105 0 2 .895 2 2v6c0 1.105-.895 2-2 2h-6c-1.105 0-2-.895-2-2v-6c0-1.105.895-2 2-2zm12 0c1.105 0 2 .895 2 2v6c0 1.105-.895 2-2 2h-6c-1.105 0-2-.895-2-2v-6c0-1.105.895-2 2-2zM19 11c1.105 0 2 .895 2 2v6c0 1.105-.895 2-2 2h-6c-1.105 0-2-.895-2-2v-6c0-1.105.895-2 2-2zm12 0c1.105 0 2 .895 2 2v6c0 1.105-.895 2-2 2h-6c-1.105 0-2-.895-2-2v-6c0-1.105.895-2 2-2z" mask="url(#qzdkx0vr3c)"/>
    </g>
</svg>
