<svg xmlns="http://www.w3.org/2000/svg" width="16" height="16" viewBox="0 0 16 16">
    <g fill="none" fill-rule="evenodd">
        <g>
            <g>
                <g>
                    <path d="M0 0H16V16H0z" transform="translate(-432 -180) translate(80 144) translate(352 36)"/>
                    <path fill="#333" fill-rule="nonzero" d="M6.5 0C10.09 0 13 2.91 13 6.5c0 1.51-.515 2.9-1.38 4.004l4.149 4.148c.308.309.308.808 0 1.117-.28.28-.72.306-1.028.076l-.089-.076-4.148-4.148C9.4 12.485 8.01 13 6.5 13 2.91 13 0 10.09 0 6.5S2.91 0 6.5 0zm0 1.5c-2.761 0-5 2.239-5 5s2.239 5 5 5 5-2.239 5-5-2.239-5-5-5zm2.308 4.25c.382 0 .692.336.692.75 0 .38-.26.693-.598.743l-.094.007H4.192c-.382 0-.692-.336-.692-.75 0-.38.26-.693.598-.743l.094-.007h4.616z" transform="translate(-432 -180) translate(80 144) translate(352 36)"/>
                </g>
            </g>
        </g>
    </g>
</svg>
