<svg xmlns="http://www.w3.org/2000/svg" width="16" height="16" viewBox="0 0 16 16">
    <g fill="none" fill-rule="evenodd">
        <path d="M0 0L16 0 16 16 0 16z"/>
        <g fill="#333" fill-rule="nonzero">
            <path d="M11 9.75c.414 0 .75.336.75.75 0 .38-.282.693-.648.743L11 11.25H6c-.414 0-.75-.336-.75-.75 0-.38.282-.693.648-.743L6 9.75h5zM7.566.796L.996 7.367c-.097.096-.165.217-.198.348L.272 9.818c-.137.55.36 1.047.91.91l2.103-.526c.131-.033.252-.101.348-.197l6.57-6.571c.472-.471.656-1.158.483-1.802C10.514.99 10.011.486 9.368.314 8.724.14 8.038.325 7.566.796zm1.413.966c.126.034.225.133.259.259l.012.076c.005.102-.033.202-.107.276L2.72 8.796l-.69.173.173-.69 6.424-6.422c.074-.074.174-.112.276-.107l.076.012z" transform="translate(2 2)"/>
        </g>
    </g>
</svg>
