<svg xmlns="http://www.w3.org/2000/svg" width="16" height="16" viewBox="0 0 16 16">
    <g fill="none" fill-rule="evenodd">
        <g>
            <g>
                <path d="M0 0L16 0 16 16 0 16z"/>
                <path class="recolor-icon" stroke="#333" stroke-width="1.5" d="M9.053 5.017c-.092 0-.184.035-.254.105l-7.613 7.612c-.05.05-.084.114-.098.184L.76 14.551c-.015.076-.015.153 0 .23.032.157.125.288.25.37.124.084.28.119.438.087l1.633-.326c.07-.014.133-.048.184-.099l7.612-7.612c.07-.07.105-.162.105-.254s-.035-.185-.105-.255L9.053 5.017zM13.333.75c-.09 0-.181.035-.25.104L11.52 2.416c-.07.07-.104.16-.104.25 0 .091.034.182.104.251l1.562 1.562c.069.07.16.104.25.104.091 0 .182-.034.251-.104l1.562-1.562c.07-.069.104-.16.104-.25 0-.091-.035-.182-.104-.251L13.333.75z"/>
            </g>
        </g>
    </g>
</svg>
