<svg xmlns="http://www.w3.org/2000/svg" width="16" height="16" viewBox="0 0 16 16">
    <g fill="none" fill-rule="evenodd">
        <g>
            <g>
                <g>
                    <path d="M0 0L16 0 16 16 0 16z" transform="translate(-327 -1378) translate(279 1378) translate(48)"/>
                    <path class="recolor-svg" fill="#333" fill-rule="nonzero" d="M.828 12.034c.22 0 .43-.086.585-.242l4.656-4.656 1.898 1.897c.155.156.365.243.585.243.22 0 .43-.087.585-.243l5.208-5.207V5.69c0 .457.37.827.827.827.457 0 .827-.37.827-.827L16 1.828C16 1.37 15.63 1 15.172 1H11.31c-.457 0-.827.37-.827.828 0 .457.37.827.827.827h1.865L8.552 7.278 6.654 5.38c-.155-.155-.365-.242-.585-.242-.22 0-.43.087-.585.242L.242 10.622c-.236.236-.307.592-.179.902.128.309.43.51.765.51zM15.172 14.5H.828c-.457 0-.828.336-.828.75s.37.75.828.75h14.344c.457 0 .828-.336.828-.75s-.37-.75-.828-.75z" transform="translate(-327 -1378) translate(279 1378) translate(48)"/>
                </g>
            </g>
        </g>
    </g>
</svg>
