<svg xmlns="http://www.w3.org/2000/svg" width="16" height="16" viewBox="0 0 16 16">
    <g fill="none" fill-rule="evenodd">
        <path d="M0 0L16 0 16 16 0 16z"/>
        <path fill="#3A68FD" d="M9.14 4.978l.053-1.85c.007-.276.237-.494.513-.486.125.003.243.053.332.139L13 5.62l-3.106 2.98c-.199.19-.515.184-.707-.015-.092-.097-.142-.226-.139-.36l.05-1.775c-1.102.123-2.192.59-3.056 1.418-1.572 1.508-1.931 3.712-1.058 5.442L3.61 14c-1.146-2.272-.677-5.161 1.383-7.137C6.167 5.737 7.65 5.12 9.14 4.978z"/>
    </g>
</svg>
