<svg xmlns="http://www.w3.org/2000/svg" width="16" height="16" viewBox="0 0 16 16">
    <g fill="none" fill-rule="evenodd">
        <g>
            <path d="M0 0H16V16H0z"/>
            <path class="recolor-icon" fill="#333" fill-rule="nonzero" d="M11.5 3.5c1.105 0 2 .895 2 2V14c0 1.105-.895 2-2 2h-7c-1.105 0-2-.895-2-2V5.5c0-1.105.895-2 2-2h7zm0 1.5h-7c-.245 0-.45.177-.492.41L4 5.5V14c0 .245.177.45.41.492l.09.008h7c.245 0 .45-.177.492-.41L12 14V5.5c0-.245-.177-.45-.41-.492L11.5 5zm-1.25-5c.414 0 .75.336.75.75 0 .088.062.173.157.251L13.25 1c.414 0 .75.336.75.75s-.336.75-.75.75H2.75c-.414 0-.75-.336-.75-.75S2.336 1 2.75 1l2.092.001C4.937.923 5 .838 5 .75c0-.414.336-.75.75-.75h4.5z"/>
        </g>
    </g>
</svg>
