<svg xmlns="http://www.w3.org/2000/svg" width="16" height="16" viewBox="0 0 16 16">
    <g fill="none" fill-rule="evenodd">
        <g>
            <g>
                <g>
                    <path d="M0 0H16V16H0z" transform="translate(-464 -180) translate(80 144) translate(384 36)"/>
                    <path fill="#333" fill-rule="nonzero" d="M6.5 0C10.09 0 13 2.91 13 6.5c0 1.51-.515 2.9-1.38 4.004l4.149 4.148c.308.309.308.808 0 1.117-.28.28-.72.306-1.028.076l-.089-.076-4.148-4.148C9.4 12.485 8.01 13 6.5 13 2.91 13 0 10.09 0 6.5S2.91 0 6.5 0zm0 1.5c-2.761 0-5 2.239-5 5s2.239 5 5 5 5-2.239 5-5-2.239-5-5-5zm0 2c.35 0 .64.26.686.598l.006.094v1.616h1.616c.382 0 .692.31.692.692 0 .35-.26.64-.598.686l-.094.006H7.192v1.616c0 .382-.31.692-.692.692-.35 0-.64-.26-.686-.598l-.006-.094V7.192H4.192c-.382 0-.692-.31-.692-.692 0-.35.26-.64.598-.686l.094-.006h1.616V4.192c0-.382.31-.692.692-.692z" transform="translate(-464 -180) translate(80 144) translate(384 36)"/>
                </g>
            </g>
        </g>
    </g>
</svg>
